<svg width="80" height="80" viewBox="0 0 80 80" fill="none" xmlns="http://www.w3.org/2000/svg">
<path opacity="0.2" d="M58.125 30.3125V40.2734C58.1257 43.7694 57.1219 47.192 55.2328 50.1349C53.3437 53.0777 50.6487 55.417 47.4679 56.875H32.2196C29.0388 55.417 26.3438 53.0777 24.4547 50.1349C22.5656 47.192 21.5618 43.7694 21.5625 40.2734V30.3125H58.125Z" fill="#FFC3AD"/>
<path d="M30.9375 24.2308V17.5962C30.9375 17.1563 31.1115 16.7344 31.4213 16.4233C31.7311 16.1123 32.1512 15.9375 32.5893 15.9375C33.0274 15.9375 33.4475 16.1123 33.7573 16.4233C34.067 16.7344 34.2411 17.1563 34.2411 17.5962V24.2308C34.2411 24.6707 34.067 25.0926 33.7573 25.4036C33.4475 25.7147 33.0274 25.8894 32.5893 25.8894C32.1512 25.8894 31.7311 25.7147 31.4213 25.4036C31.1115 25.0926 30.9375 24.6707 30.9375 24.2308ZM39.1964 25.8894C39.6345 25.8894 40.0546 25.7147 40.3644 25.4036C40.6742 25.0926 40.8482 24.6707 40.8482 24.2308V17.5962C40.8482 17.1563 40.6742 16.7344 40.3644 16.4233C40.0546 16.1123 39.6345 15.9375 39.1964 15.9375C38.7583 15.9375 38.3382 16.1123 38.0284 16.4233C37.7187 16.7344 37.5446 17.1563 37.5446 17.5962V24.2308C37.5446 24.6707 37.7187 25.0926 38.0284 25.4036C38.3382 25.7147 38.7583 25.8894 39.1964 25.8894ZM45.8036 25.8894C46.2417 25.8894 46.6618 25.7147 46.9716 25.4036C47.2813 25.0926 47.4554 24.6707 47.4554 24.2308V17.5962C47.4554 17.1563 47.2813 16.7344 46.9716 16.4233C46.6618 16.1123 46.2417 15.9375 45.8036 15.9375C45.3655 15.9375 44.9454 16.1123 44.6356 16.4233C44.3258 16.7344 44.1518 17.1563 44.1518 17.5962V24.2308C44.1518 24.6707 44.3258 25.0926 44.6356 25.4036C44.9454 25.7147 45.3655 25.8894 45.8036 25.8894ZM65.625 37.5V39.1587C65.6243 41.2684 64.823 43.2985 63.3842 44.8358C61.9453 46.3731 59.9771 47.3019 57.8802 47.4333C56.7535 50.6336 54.8352 53.4937 52.3054 55.7452H57.3661C57.8042 55.7452 58.2243 55.9199 58.5341 56.231C58.8438 56.5421 59.0179 56.9639 59.0179 57.4038C59.0179 57.8438 58.8438 58.2656 58.5341 58.5767C58.2243 58.8878 57.8042 59.0625 57.3661 59.0625H21.0268C20.5887 59.0625 20.1686 58.8878 19.8588 58.5767C19.549 58.2656 19.375 57.8438 19.375 57.4038C19.375 56.9639 19.549 56.5421 19.8588 56.231C20.1686 55.9199 20.5887 55.7452 21.0268 55.7452H26.0936C23.9862 53.8755 22.2976 51.5783 21.1395 49.005C19.9813 46.4318 19.3799 43.6411 19.375 40.8173V30.8654C19.375 30.4255 19.549 30.0036 19.8588 29.6925C20.1686 29.3815 20.5887 29.2067 21.0268 29.2067H57.3661C59.5565 29.2067 61.6572 30.0805 63.206 31.6358C64.7549 33.1911 65.625 35.3005 65.625 37.5ZM55.7143 32.524H22.6786V40.8173C22.6849 43.9316 23.5614 46.9816 25.2083 49.6205C26.8552 52.2595 29.2064 54.3815 31.9946 55.7452H46.3982C49.1865 54.3815 51.5377 52.2595 53.1846 49.6205C54.8315 46.9816 55.7079 43.9316 55.7143 40.8173V32.524ZM62.3214 37.5C62.3211 36.4713 62.0033 35.4679 61.4117 34.628C60.82 33.7882 59.9837 33.1531 59.0179 32.8102V40.8173C59.0166 41.8589 58.9338 42.8988 58.7701 43.9273C59.795 43.6232 60.6945 42.9946 61.3345 42.1353C61.9745 41.2759 62.3207 40.2318 62.3214 39.1587V37.5Z" fill="#FFC3AD"/>
</svg>
