<svg width="80" height="80" viewBox="0 0 80 80" fill="none" xmlns="http://www.w3.org/2000/svg">
<g clip-path="url(#clip0_10_89)">
<path opacity="0.2" d="M60.8889 20H25.1111C23.7556 20 22.4555 20.5385 21.497 21.497C20.5385 22.4555 20 23.7555 20 25.1111V60.8887C20 62.2442 20.5385 63.5443 21.497 64.5028C22.4555 65.4613 23.7556 65.9998 25.1111 65.9998H30.2222C30.5997 65.9973 30.9719 65.9112 31.3122 65.7477C31.6524 65.5842 31.9522 65.3474 32.19 65.0542C32.4398 64.7668 32.6223 64.4272 32.7239 64.0602C32.8256 63.6932 32.844 63.3081 32.7778 62.9331C32.7778 62.9331 32.0878 59.4065 31.4233 55.2665C30.7589 51.1265 30.3756 48.6221 30.2222 46.6543C33.1234 43.6992 35.2328 40.0605 36.3556 36.0744C37.3673 32.5076 37.8832 28.8186 37.8889 25.1111H48.1111C48.1111 29.9922 49.1333 40.1377 55.7778 46.6543C55.4711 52.021 53.2222 62.8309 53.2222 62.9331C53.1491 63.3044 53.1593 63.6872 53.2521 64.054C53.3449 64.4208 53.518 64.7624 53.7589 65.0542C54.0021 65.3541 54.3101 65.595 54.6598 65.7587C55.0095 65.9225 55.3917 66.0049 55.7778 65.9998H60.8889C62.2444 65.9998 63.5445 65.4613 64.503 64.5028C65.4615 63.5443 66 62.2442 66 60.8887V25.1111C66 23.7555 65.4615 22.4555 64.503 21.497C63.5445 20.5385 62.2444 20 60.8889 20Z" fill="#FFC3AD"/>
<path d="M57.8889 17H22.1111C20.7556 17 19.4555 17.5385 18.497 18.497C17.5385 19.4555 17 20.7555 17 22.1111V57.8887C17 59.2442 17.5385 60.5443 18.497 61.5028C19.4555 62.4613 20.7556 62.9998 22.1111 62.9998H29.7778C30.1552 62.9973 30.5275 62.9112 30.8677 62.7477C31.208 62.5842 31.5078 62.3474 31.7456 62.0542C31.9954 61.7668 32.1778 61.4272 32.2795 61.0602C32.3812 60.6932 32.3996 60.3081 32.3333 59.9331C32.3333 59.9331 31.6433 56.4065 30.9789 52.2665C30.3144 48.1265 29.9311 45.6221 29.7778 43.6543C32.679 40.6992 34.7884 37.0605 35.9111 33.0744C36.9231 29.5068 37.4393 25.8166 37.4444 22.1111H42.5556C42.5556 26.9922 43.5778 37.1377 50.2222 43.6543C49.9156 49.021 47.6667 59.8309 47.6667 59.9331C47.5935 60.3044 47.6037 60.6872 47.6965 61.054C47.7893 61.4208 47.9624 61.7624 48.2033 62.0542C48.4466 62.3541 48.7546 62.595 49.1042 62.7587C49.4539 62.9225 49.8361 63.0049 50.2222 62.9998H57.8889C59.2444 62.9998 60.5445 62.4613 61.503 61.5028C62.4615 60.5443 63 59.2442 63 57.8887V22.1111C63 20.7555 62.4615 19.4555 61.503 18.497C60.5445 17.5385 59.2444 17 57.8889 17ZM22.1111 57.8887V45.111H24.6667C24.8456 47.181 25.2033 49.8643 25.74 53.1865C26.0211 54.9243 26.3278 56.5598 26.5578 57.8887H22.1111ZM26.1744 39.9999H22.1111V22.1111H32.3333C32.3237 25.3172 31.8766 28.507 31.0044 31.5922C30.1471 34.7646 28.4831 37.6611 26.1744 39.9999ZM57.8889 57.8887H53.3144C53.9278 54.5154 54.8478 49.0721 55.2056 45.111H57.8889V57.8887ZM57.8889 39.9999H53.8511C48.5356 34.8888 47.6667 26.2511 47.6667 22.1111H57.8889V39.9999Z" fill="#FFC3AD"/>
</g>
<defs>
<clipPath id="clip0_10_89">
<rect width="80" height="80" fill="white"/>
</clipPath>
</defs>
</svg>
