<svg width="25" height="25" viewBox="0 0 25 25" fill="none" xmlns="http://www.w3.org/2000/svg">
<path fill-rule="evenodd" clip-rule="evenodd" d="M0 5C0 2.23858 2.23858 0 5 0H19.1747C21.9361 0 24.1747 2.23858 24.1747 5V19.1747C24.1747 21.9361 21.9361 24.1747 19.1747 24.1747H5C2.23858 24.1747 0 21.9361 0 19.1747V5ZM12.0873 17.7053C15.1901 17.7053 17.7054 15.19 17.7054 12.0872C17.7054 8.98446 15.1901 6.46916 12.0873 6.46916C8.98458 6.46916 6.46928 8.98446 6.46928 12.0872C6.46928 15.19 8.98458 17.7053 12.0873 17.7053ZM12.0873 15.6624C14.0618 15.6624 15.6625 14.0617 15.6625 12.0873C15.6625 10.1128 14.0618 8.51212 12.0873 8.51212C10.1129 8.51212 8.51222 10.1128 8.51222 12.0873C8.51222 14.0617 10.1129 15.6624 12.0873 15.6624ZM19.0674 6.12886C19.8196 6.12886 20.4293 5.51909 20.4293 4.76691C20.4293 4.01472 19.8196 3.40495 19.0674 3.40495C18.3152 3.40495 17.7054 4.01472 17.7054 4.76691C17.7054 5.51909 18.3152 6.12886 19.0674 6.12886Z" fill="#DEDEDE"/>
</svg>
