<svg width="36" height="36" viewBox="0 0 36 36" fill="none" xmlns="http://www.w3.org/2000/svg">
<path opacity="0.5" d="M4.5 13.0648V25.2568C4.5 26.8213 4.5 27.6043 4.9245 28.1938C5.349 28.7833 6.0915 29.0308 7.5765 29.5258L9.324 30.1078C11.3745 30.7918 12.399 31.1338 13.4325 30.9943L13.5 30.9853V9.98532C13.331 10.0105 13.1607 10.026 12.99 10.0318C12.18 10.0603 11.379 9.79182 9.7785 9.25932C7.6815 8.56032 6.633 8.21082 5.835 8.56632C5.55221 8.69214 5.29842 8.87495 5.0895 9.10332C4.5 9.74982 4.5 10.8538 4.5 13.0648ZM31.5 22.9348V10.7443C31.5 9.17982 31.5 8.39682 31.0755 7.80732C30.651 7.21782 29.9085 6.97032 28.4235 6.47532L26.676 5.89332C24.6255 5.20932 23.601 4.86732 22.5675 5.00682L22.5 5.01432V26.0143C22.6695 25.9888 22.8405 25.9738 23.01 25.9678C23.82 25.9393 24.621 26.2078 26.2215 26.7403C28.3185 27.4393 29.367 27.7888 30.165 27.4333C30.4478 27.3075 30.7016 27.1247 30.9105 26.8963C31.5 26.2498 31.5 25.1458 31.5 22.9348Z" fill="black"/>
<path d="M13.8705 9.91515C13.7477 9.9424 13.6242 9.96591 13.5 9.98565V30.9856C14.505 30.8296 15.4035 30.2311 17.163 29.0581L19.236 27.6751C20.64 26.7391 21.342 26.2711 22.131 26.0851C22.251 26.0551 22.3755 26.0326 22.5 26.0146V5.01465C21.495 5.16915 20.5965 5.76915 18.837 6.94065L16.764 8.32365C15.36 9.25965 14.658 9.72765 13.869 9.91365" fill="black"/>
</svg>
