<svg width="36" height="36" viewBox="0 0 36 36" fill="none" xmlns="http://www.w3.org/2000/svg">
<path fill-rule="evenodd" clip-rule="evenodd" d="M24.15 20.0385L24.834 19.359C25.779 18.42 27.2505 18.2265 28.4595 18.8835L31.3245 20.442C33.165 21.4425 33.5715 23.895 32.133 25.3245L30.003 27.4425C29.46 27.9825 28.788 28.3755 28.014 28.4475C26.226 28.614 22.5465 28.524 18.2055 25.983L24.15 20.0385ZM15.285 11.2245L15.7155 10.7955C16.776 9.74247 16.8765 8.05047 15.951 6.81447L14.061 4.28997C12.915 2.75997 10.7025 2.55747 9.39 3.86247L7.035 6.20247C6.3855 6.85047 5.9505 7.68747 6.003 8.61747C6.1005 10.3275 6.6825 13.4475 9.2265 17.2815L15.285 11.2245Z" fill="black"/>
<path opacity="0.6" d="M18.0945 17.2456C13.6755 12.8521 15.2745 11.2336 15.285 11.2231L9.2265 17.2831C10.227 18.7891 11.529 20.4046 13.2225 22.0891C14.9325 23.7901 16.6125 25.0516 18.2055 25.9831L24.15 20.0401C24.15 20.0401 22.527 21.6541 18.0945 17.2471" fill="black"/>
</svg>
