<svg width="80" height="80" viewBox="0 0 80 80" fill="none" xmlns="http://www.w3.org/2000/svg">
<g opacity="0.2">
<path d="M74 44C74 51.4261 71.05 58.548 65.799 63.799C60.548 69.05 53.4261 72 46 72C38.5739 72 31.452 69.05 26.201 63.799C20.95 58.548 18 51.4261 18 44C18 36.5739 20.95 29.452 26.201 24.201C31.452 18.95 38.5739 16 46 16C53.4261 16 60.548 18.95 65.799 24.201C71.05 29.452 74 36.5739 74 44Z" fill="#FFC3AD"/>
<path fill-rule="evenodd" clip-rule="evenodd" d="M46 64C51.3043 64 56.3914 61.8929 60.1421 58.1421C63.8929 54.3914 66 49.3043 66 44C66 38.6957 63.8929 33.6086 60.1421 29.8579C56.3914 26.1071 51.3043 24 46 24C40.6957 24 35.6086 26.1071 31.8579 29.8579C28.1071 33.6086 26 38.6957 26 44C26 49.3043 28.1071 54.3914 31.8579 58.1421C35.6086 61.8929 40.6957 64 46 64ZM46 72C49.677 72 53.318 71.2758 56.7151 69.8686C60.1123 68.4615 63.1989 66.399 65.799 63.799C68.399 61.1989 70.4615 58.1123 71.8686 54.7151C73.2758 51.318 74 47.677 74 44C74 40.323 73.2758 36.682 71.8686 33.2849C70.4615 29.8877 68.399 26.8011 65.799 24.201C63.1989 21.601 60.1123 19.5385 56.7151 18.1314C53.318 16.7242 49.677 16 46 16C38.5739 16 31.452 18.95 26.201 24.201C20.95 29.452 18 36.5739 18 44C18 51.4261 20.95 58.548 26.201 63.799C31.452 69.05 38.5739 72 46 72Z" fill="#FFC3AD"/>
</g>
<path fill-rule="evenodd" clip-rule="evenodd" d="M22.416 21.8C19.6511 24.5242 17.5376 27.838 16.2333 31.4938C14.929 35.1496 14.4678 39.0529 14.884 42.912C14.9228 43.4303 14.7582 43.9434 14.4251 44.3425C14.092 44.7416 13.6166 44.9953 13.0997 45.05C12.5827 45.1046 12.0648 44.9558 11.6557 44.6351C11.2466 44.3144 10.9784 43.847 10.908 43.332C10.4279 38.8747 10.961 34.3666 12.4675 30.1443C13.974 25.922 16.4149 22.0946 19.608 18.948C31.356 7.35997 50.308 7.54797 61.936 19.34C73.564 31.128 73.488 50.08 61.736 61.668C56.2964 67.042 48.9936 70.111 41.348 70.236C38.4574 70.2875 35.5745 69.9224 32.788 69.152C32.2767 69.0109 31.8423 68.6724 31.5805 68.2111C31.3187 67.7498 31.2509 67.2033 31.392 66.692C31.5331 66.1806 31.8716 65.7463 32.3329 65.4845C32.7942 65.2227 33.3407 65.1549 33.852 65.296C36.2687 65.9643 38.769 66.2809 41.276 66.236C47.8957 66.1303 54.2191 63.4737 58.928 58.82C69.092 48.796 69.176 32.38 59.088 22.148C49 11.916 32.58 11.776 22.416 21.8Z" fill="#FFC3AD"/>
<path fill-rule="evenodd" clip-rule="evenodd" d="M14.376 45.452C14.2011 45.648 13.9893 45.8075 13.7527 45.9216C13.5161 46.0357 13.2594 46.1021 12.9972 46.1169C12.7349 46.1318 12.4723 46.0948 12.2244 46.0082C11.9764 45.9216 11.7479 45.7869 11.552 45.612L4.67201 39.492C4.46051 39.3222 4.28576 39.1112 4.15837 38.8718C4.03098 38.6324 3.95362 38.3695 3.93099 38.0993C3.90836 37.829 3.94093 37.5569 4.02673 37.2997C4.11253 37.0424 4.24976 36.8052 4.43008 36.6027C4.61039 36.4001 4.83003 36.2363 5.07563 36.1212C5.32124 36.0062 5.58767 35.9423 5.85874 35.9334C6.1298 35.9246 6.39984 35.971 6.65242 36.0697C6.90501 36.1685 7.13486 36.3176 7.32801 36.508L14.208 42.628C14.4045 42.8024 14.5647 43.0138 14.6795 43.2501C14.7943 43.4864 14.8614 43.743 14.877 44.0052C14.8926 44.2675 14.8564 44.5302 14.7705 44.7785C14.6845 45.0267 14.5505 45.2556 14.376 45.452Z" fill="#FFC3AD"/>
<path fill-rule="evenodd" clip-rule="evenodd" d="M11.28 45.2C11.4376 45.4101 11.635 45.5871 11.861 45.7209C12.087 45.8548 12.3372 45.9428 12.5972 45.9799C12.8572 46.017 13.1219 46.0026 13.3764 45.9374C13.6308 45.8722 13.8699 45.7576 14.08 45.6L22.08 39.6C22.5044 39.2817 22.7849 38.8079 22.8599 38.2828C22.9349 37.7577 22.7983 37.2243 22.48 36.8C22.1618 36.3757 21.688 36.0951 21.1629 36.0201C20.6378 35.9451 20.1044 36.0817 19.68 36.4L11.68 42.4C11.2557 42.7183 10.9751 43.1921 10.9001 43.7172C10.8251 44.2423 10.9618 44.7757 11.28 45.2ZM40 26C40.5304 26 41.0392 26.2107 41.4142 26.5858C41.7893 26.9609 42 27.4696 42 28V42C42 42.5304 41.7893 43.0391 41.4142 43.4142C41.0392 43.7893 40.5304 44 40 44C39.4696 44 38.9609 43.7893 38.5858 43.4142C38.2107 43.0391 38 42.5304 38 42V28C38 27.4696 38.2107 26.9609 38.5858 26.5858C38.9609 26.2107 39.4696 26 40 26Z" fill="#FFC3AD"/>
<path fill-rule="evenodd" clip-rule="evenodd" d="M54 42C54 42.5304 53.7893 43.0391 53.4142 43.4142C53.0391 43.7893 52.5304 44 52 44H40C39.4696 44 38.9609 43.7893 38.5858 43.4142C38.2107 43.0391 38 42.5304 38 42C38 41.4696 38.2107 40.9609 38.5858 40.5858C38.9609 40.2107 39.4696 40 40 40H52C52.5304 40 53.0391 40.2107 53.4142 40.5858C53.7893 40.9609 54 41.4696 54 42Z" fill="#FFC3AD"/>
</svg>
