<svg width="80" height="80" viewBox="0 0 80 80" fill="none" xmlns="http://www.w3.org/2000/svg">
<path opacity="0.2" d="M33.9557 61.9047C34.428 63.6662 35.5781 65.1675 37.1533 66.079C38.7286 66.9905 40.6001 67.2376 42.3569 66.7659L60.9209 61.7775C61.7908 61.5442 62.6062 61.1411 63.3206 60.5914C64.035 60.0416 64.6342 59.3559 65.0841 58.5736C65.5339 57.7912 65.8255 56.9276 65.9422 56.0321C66.0589 55.1366 65.9984 54.2268 65.7641 53.3547L56.0434 17.0921C55.5704 15.3313 54.42 13.8307 52.8448 12.9199C51.2697 12.0091 49.3985 11.7626 47.6423 12.2343L29.0782 17.2193C28.2087 17.4526 27.3936 17.8556 26.6795 18.4051C25.9654 18.9547 25.3664 19.64 24.9165 20.422C24.4667 21.2039 24.175 22.0671 24.0581 22.9622C23.9411 23.8574 24.0012 24.7668 24.235 25.6386L33.9557 61.9047ZM38.5659 26.6081C38.5659 27.2919 38.2951 27.9478 37.813 28.4313C37.3309 28.9148 36.677 29.1865 35.9952 29.1865C35.3134 29.1865 34.6595 28.9148 34.1774 28.4313C33.6953 27.9478 33.4245 27.2919 33.4245 26.6081C33.4245 25.9243 33.6953 25.2684 34.1774 24.7849C34.6595 24.3013 35.3134 24.0297 35.9952 24.0297C36.677 24.0297 37.3309 24.3013 37.813 24.7849C38.2951 25.2684 38.5659 25.9243 38.5659 26.6081Z" fill="#FFC3AD"/>
<path d="M34.2538 58.3418C34.3666 58.7542 34.5611 59.1407 34.8262 59.4792C35.0912 59.8177 35.4216 60.1016 35.7984 60.3147C36.1752 60.5278 36.5911 60.6659 37.0223 60.721C37.4535 60.7762 37.8915 60.7474 38.3114 60.6363L56.2395 55.9206C56.6593 55.8101 57.0528 55.6195 57.3975 55.3595C57.7422 55.0996 58.0313 54.7755 58.2483 54.4057C58.4653 54.0359 58.606 53.6278 58.6622 53.2046C58.7184 52.7814 58.6892 52.3514 58.576 51.9394L49.19 17.6555C49.0775 17.2432 48.8834 16.8567 48.6187 16.518C48.354 16.1794 48.0241 15.8953 47.6476 15.6819C47.2711 15.4686 46.8555 15.3301 46.4245 15.2745C45.9935 15.2189 45.5556 15.2472 45.1358 15.3577L27.2043 20.0767C26.7849 20.1872 26.3917 20.3777 26.0473 20.6374C25.7028 20.8972 25.4139 21.221 25.1969 21.5904C24.9799 21.9598 24.8392 22.3675 24.7827 22.7904C24.7262 23.2132 24.7551 23.6428 24.8678 24.0547L34.2538 58.3418ZM39.1719 63.7758C37.4756 64.2216 35.6685 63.9881 34.1475 63.1264C32.6265 62.2648 31.516 60.8455 31.06 59.1803L21.674 24.8996C21.4478 24.0753 21.3894 23.2152 21.502 22.3687C21.6147 21.5221 21.8963 20.7057 22.3307 19.9661C22.765 19.2265 23.3437 18.5783 24.0334 18.0586C24.7232 17.5389 25.5106 17.1578 26.3505 16.9372L44.2753 12.2215C45.971 11.7755 47.7778 12.0086 49.2987 12.8696C50.8196 13.7306 51.9304 15.1492 52.3871 16.8137L61.7731 51.1009C61.9988 51.925 62.0569 52.7848 61.944 53.631C61.831 54.4772 61.5494 55.2932 61.115 56.0324C60.6807 56.7716 60.1022 57.4195 59.4127 57.939C58.7232 58.4585 57.9362 58.8395 57.0966 59.0601L39.1719 63.7758ZM28.8989 63.9968H29.4019C28.9003 63.2604 28.5257 62.4478 28.2932 61.5918L28.0317 60.633C27.3301 60.4458 26.7104 60.0376 26.268 59.471C25.8255 58.9044 25.5848 58.2108 25.5826 57.4968V51.6794L22.2598 39.5505L22.2764 57.5001C22.2764 58.3539 22.4477 59.1994 22.7805 59.9882C23.1134 60.7771 23.6012 61.4938 24.2162 62.0974C24.8312 62.701 25.5613 63.1797 26.3648 63.5062C27.1682 63.8326 28.0293 63.9972 28.8989 63.9968ZM18.9568 59.1251C18.9568 59.619 19.0032 60.1 19.0892 60.5713L18.9105 60.5225C17.2143 60.0761 15.7679 58.9867 14.8892 57.4937C14.0105 56.0007 13.7713 54.2262 14.2241 52.5601L18.937 35.2378L18.9469 47.7957L17.4245 53.4019C17.0273 54.8513 17.6959 56.3333 18.9535 57.0548L18.9568 59.1251ZM33.0292 23.3722C33.3552 23.3722 33.678 23.4352 33.9791 23.5577C34.2803 23.6802 34.5539 23.8597 34.7844 24.0861C35.0149 24.3124 35.1978 24.5811 35.3225 24.8769C35.4472 25.1726 35.5114 25.4895 35.5114 25.8096C35.5114 26.1297 35.4472 26.4467 35.3225 26.7424C35.1978 27.0381 35.0149 27.3069 34.7844 27.5332C34.5539 27.7595 34.2803 27.9391 33.9791 28.0616C33.678 28.1841 33.3552 28.2471 33.0292 28.2471C32.3709 28.2471 31.7396 27.9903 31.2741 27.5332C30.8086 27.0761 30.547 26.4561 30.547 25.8096C30.547 25.1632 30.8086 24.5432 31.2741 24.0861C31.7396 23.629 32.3709 23.3722 33.0292 23.3722Z" fill="#FFC3AD"/>
</svg>
